<?xml version="1.0" encoding="UTF-8" standalone="no"?>
<!DOCTYPE svg PUBLIC "-//W3C//DTD SVG 1.1//EN" "http://www.w3.org/Graphics/SVG/1.1/DTD/svg11.dtd">
<svg version="1.1" xmlns="http://www.w3.org/2000/svg" xmlns:xlink="http://www.w3.org/1999/xlink" preserveAspectRatio="xMidYMid meet" viewBox="0 0 640 640" width="640" height="640"><defs><path d="M20 4C20 4 20 4 20 4C20 13.6 20 18.93 20 20C20 20 20 20 20 20C10.4 20 5.07 20 4 20C4 20 4 20 4 20C4 10.4 4 5.07 4 4C4 4 4 4 4 4C13.6 4 18.93 4 20 4Z" id="e2MkjFM9m6"></path><path d="M44 4C44 4 44 4 44 4C44 13.6 44 18.93 44 20C44 20 44 20 44 20C34.4 20 29.07 20 28 20C28 20 28 20 28 20C28 10.4 28 5.07 28 4C28 4 28 4 28 4C37.6 4 42.93 4 44 4Z" id="az2RH68K"></path><path d="M68 4C68 4 68 4 68 4C68 13.6 68 18.93 68 20C68 20 68 20 68 20C58.4 20 53.07 20 52 20C52 20 52 20 52 20C52 10.4 52 5.07 52 4C52 4 52 4 52 4C61.6 4 66.93 4 68 4Z" id="bmeha5K2h"></path><path d="M188 4C188 4 188 4 188 4C188 13.6 188 18.93 188 20C188 20 188 20 188 20C178.4 20 173.07 20 172 20C172 20 172 20 172 20C172 10.4 172 5.07 172 4C172 4 172 4 172 4C181.6 4 186.93 4 188 4Z" id="a10zgPeR4Y"></path><path d="M212 4C212 4 212 4 212 4C212 13.6 212 18.93 212 20C212 20 212 20 212 20C202.4 20 197.07 20 196 20C196 20 196 20 196 20C196 10.4 196 5.07 196 4C196 4 196 4 196 4C205.6 4 210.93 4 212 4Z" id="bqinEDCQA"></path><path d="M17 11C17 11 17 11 17 11C17 12.2 17 12.87 17 13C17 13 17 13 17 13C11 13 7.67 13 7 13C7 13 7 13 7 13C7 11.8 7 11.13 7 11C7 11 7 11 7 11C13 11 16.33 11 17 11Z" id="a55kVFGsmF"></path><path d="M13 7C13 7 13 7 13 7C13 13 13 16.33 13 17C13 17 13 17 13 17C11.8 17 11.13 17 11 17C11 17 11 17 11 17C11 11 11 7.67 11 7C11 7 11 7 11 7C12.2 7 12.87 7 13 7Z" id="kEW38jmRh"></path><path d="M38.83 7.76C38.83 7.76 38.83 7.76 38.83 7.76C39.68 8.61 40.15 9.08 40.24 9.17C40.24 9.17 40.24 9.17 40.24 9.17C36 13.41 33.64 15.77 33.17 16.24C33.17 16.24 33.17 16.24 33.17 16.24C32.32 15.39 31.85 14.92 31.76 14.83C31.76 14.83 31.76 14.83 31.76 14.83C36 10.59 38.36 8.23 38.83 7.76Z" id="a4AZJSg21L"></path><path d="M33.17 7.76C33.17 7.76 33.17 7.76 33.17 7.76C37.41 12 39.77 14.36 40.24 14.83C40.24 14.83 40.24 14.83 40.24 14.83C39.39 15.68 38.92 16.15 38.83 16.24C38.83 16.24 38.83 16.24 38.83 16.24C34.59 12 32.23 9.64 31.76 9.17C31.76 9.17 31.76 9.17 31.76 9.17C32.61 8.32 33.08 7.85 33.17 7.76Z" id="c5x3rABGd"></path><path d="M62 7C62 7 62 7 62 7C62 11.2 62 13.53 62 14C62 14 62 14 62 14C57.8 14 55.47 14 55 14C55 14 55 14 55 14C55 9.8 55 7.47 55 7C55 7 55 7 55 7C59.2 7 61.53 7 62 7Z" id="a7LcX0AEI"></path><path d="M65 10C65 10 65 10 65 10C65 14.2 65 16.53 65 17C65 17 65 17 65 17C60.8 17 58.47 17 58 17C58 17 58 17 58 17C58 12.8 58 10.47 58 10C58 10 58 10 58 10C62.2 10 64.53 10 65 10Z" id="blwPqIytz"></path><path d="M65 10C65 10 65 10 65 10C65 14.2 65 16.53 65 17C65 17 65 17 65 17C60.8 17 58.47 17 58 17C58 17 58 17 58 17C58 12.8 58 10.47 58 10C58 10 58 10 58 10C62.2 10 64.53 10 65 10Z" id="b1Bfl2u6z"></path><path d="M206 11C206 11 206 11 206 11C206 12.2 206 12.87 206 13C206 13 206 13 206 13C201.2 13 198.53 13 198 13C198 13 198 13 198 13C198 11.8 198 11.13 198 11C198 11 198 11 198 11C202.8 11 205.47 11 206 11Z" id="a2YKZc8oc"></path><path d="M210 7C210 7 210 7 210 7C210 8.2 210 8.87 210 9C210 9 210 9 210 9C202.8 9 198.8 9 198 9C198 9 198 9 198 9C198 7.8 198 7.13 198 7C198 7 198 7 198 7C205.2 7 209.2 7 210 7Z" id="c5TXgBflQV"></path><path d="M202 15C202 15 202 15 202 15C202 16.2 202 16.87 202 17C202 17 202 17 202 17C199.6 17 198.27 17 198 17C198 17 198 17 198 17C198 15.8 198 15.13 198 15C198 15 198 15 198 15C200.4 15 201.73 15 202 15Z" id="a1Dzpy1z67"></path><path d="M182 13C182 13 182 13 182 13C182 11.8 182 11.13 182 11C182 11 182 11 182 11C177.2 11 174.53 11 174 11C174 11 174 11 174 11C174 12.2 174 12.87 174 13C174 13 174 13 174 13C178.8 13 181.47 13 182 13Z" id="c56kK5L0h2"></path><path d="M186 17C186 17 186 17 186 17C186 15.8 186 15.13 186 15C186 15 186 15 186 15C178.8 15 174.8 15 174 15C174 15 174 15 174 15C174 16.2 174 16.87 174 17C174 17 174 17 174 17C181.2 17 185.2 17 186 17Z" id="b32sUS6DzQ"></path><path d="M178 9C178 9 178 9 178 9C178 7.8 178 7.13 178 7C178 7 178 7 178 7C175.6 7 174.27 7 174 7C174 7 174 7 174 7C174 8.2 174 8.87 174 9C174 9 174 9 174 9C176.4 9 177.73 9 178 9Z" id="d19RzERBJZ"></path><path d="M92 4C92 4 92 4 92 4C92 13.6 92 18.93 92 20C92 20 92 20 92 20C82.4 20 77.07 20 76 20C76 20 76 20 76 20C76 10.4 76 5.07 76 4C76 4 76 4 76 4C85.6 4 90.93 4 92 4Z" id="i367E2jFkz"></path><path d="M85.09 7.42C88.12 7.18 85.42 11.07 87.57 12C85.39 13.09 88.07 16.91 85.12 16.58C85.12 16.72 85.11 17.86 85.1 18C90.81 18.56 86.14 12.9 89.81 12.73C89.81 12.59 89.81 11.47 89.81 11.33C86.19 11.3 90.93 5.62 85.1 6.02C85.1 6.02 85.09 7.28 85.09 7.42Z" id="b4JJGc0i0"></path><path d="M82.8 7.4C79.77 7.16 82.47 11.06 80.31 11.98C82.5 13.08 79.82 16.89 82.77 16.56C82.77 16.7 82.78 17.84 82.78 17.98C77.07 18.54 81.75 12.88 78.08 12.72C78.08 12.58 78.08 11.45 78.08 11.31C81.69 11.28 76.96 5.6 82.78 6C82.78 6 82.8 7.26 82.8 7.4Z" id="fX3XrTMcy"></path><path d="M116 4C116 4 116 4 116 4C116 13.6 116 18.93 116 20C116 20 116 20 116 20C106.4 20 101.07 20 100 20C100 20 100 20 100 20C100 10.4 100 5.07 100 4C100 4 100 4 100 4C109.6 4 114.93 4 116 4Z" id="cYU3cG2EL"></path><path d="M103.72 5.67L103.72 18.39L106.75 18.39L106.75 16.86L105.41 16.86L105.41 7.23L106.78 7.23L106.78 5.67L103.72 5.67Z" id="dP4QpoY4l"></path><path d="M112.22 5.67L112.22 18.39L109.19 18.39L109.19 16.86L110.53 16.86L110.53 7.23L109.16 7.23L109.16 5.67L112.22 5.67Z" id="i1nnOYKjmp"></path><path d="M140 4C140 4 140 4 140 4C140 13.6 140 18.93 140 20C140 20 140 20 140 20C130.4 20 125.07 20 124 20C124 20 124 20 124 20C124 10.4 124 5.07 124 4C124 4 124 4 124 4C133.6 4 138.93 4 140 4Z" id="aCqThVZz7"></path><path d="M126.28 17.6L128.07 17.6L129.21 14.74L134.87 14.74L136.02 17.6L137.78 17.6L132.99 6.44L131.08 6.44L126.28 17.6Z" id="b1SEVthTx8"></path><path d="M129.73 13.48L134.34 13.49L132.03 7.94L129.73 13.48Z" id="fpm6iP67c"></path><path d="M164 4C164 4 164 4 164 4C164 13.6 164 18.93 164 20C164 20 164 20 164 20C154.4 20 149.07 20 148 20C148 20 148 20 148 20C148 10.4 148 5.07 148 4C148 4 148 4 148 4C157.6 4 162.93 4 164 4Z" id="bilIKGaHT"></path><path d="M156.48 5.89L156.48 8.07L156.94 10.47L158.77 10.47L159.16 8.07L159.16 5.89L156.48 5.89Z" id="g2wo9JbBb"></path><path d="M152.52 5.89L152.52 8.07L152.98 10.47L154.8 10.47L155.2 8.07L155.2 5.89L152.52 5.89Z" id="a1SdRGGZW"></path><path d="M66 64C66 64 66 64 66 64C66 65.2 66 65.87 66 66C66 66 66 66 66 66C58.8 66 54.8 66 54 66C54 66 54 66 54 66C54 64.8 54 64.13 54 64C54 64 54 64 54 64C61.2 64 65.2 64 66 64Z" id="e1WZeucv7R"></path><path d="M83 52C83 52 83 52 83 52C83 53.8 83 54.8 83 55C83 55 83 55 83 55C81.2 55 80.2 55 80 55C80 55 80 55 80 55C80 53.2 80 52.2 80 52C80 52 80 52 80 52C81.8 52 82.8 52 83 52Z" id="c1oW9KXatX"></path><path d="M88 52C88 52 88 52 88 52C88 53.8 88 54.8 88 55C88 55 88 55 88 55C86.2 55 85.2 55 85 55C85 55 85 55 85 55C85 53.2 85 52.2 85 52C85 52 85 52 85 52C86.8 52 87.8 52 88 52Z" id="i1FcgAB60H"></path><path d="M83 58C83 58 83 58 83 58C83 59.8 83 60.8 83 61C83 61 83 61 83 61C81.2 61 80.2 61 80 61C80 61 80 61 80 61C80 59.2 80 58.2 80 58C80 58 80 58 80 58C81.8 58 82.8 58 83 58Z" id="blBWVRS0t"></path><path d="M88 58C88 58 88 58 88 58C88 59.8 88 60.8 88 61C88 61 88 61 88 61C86.2 61 85.2 61 85 61C85 61 85 61 85 61C85 59.2 85 58.2 85 58C85 58 85 58 85 58C86.8 58 87.8 58 88 58Z" id="g1Uoj2DZsT"></path><path d="M83 64C83 64 83 64 83 64C83 65.8 83 66.8 83 67C83 67 83 67 83 67C81.2 67 80.2 67 80 67C80 67 80 67 80 67C80 65.2 80 64.2 80 64C80 64 80 64 80 64C81.8 64 82.8 64 83 64Z" id="cPeStzNui"></path><path d="M88 64C88 64 88 64 88 64C88 65.8 88 66.8 88 67C88 67 88 67 88 67C86.2 67 85.2 67 85 67C85 67 85 67 85 67C85 65.2 85 64.2 85 64C85 64 85 64 85 64C86.8 64 87.8 64 88 64Z" id="a463Rs1fQ"></path><path d="M110.06 53.2C107.44 53.2 105.32 55.32 105.32 57.94C105.32 60.56 107.44 62.68 110.06 62.68C112.68 62.68 114.8 60.56 114.8 57.94C114.8 55.32 112.68 53.2 110.06 53.2Z" id="a3iFsQ5BNf"></path><path d="M107.96 62.99C107.96 62.99 107.96 62.99 107.96 62.99C105.24 65.71 103.73 67.21 103.43 67.52C103.43 67.52 103.43 67.52 103.43 67.52C101.63 65.72 100.64 64.73 100.44 64.53C100.44 64.53 100.44 64.53 100.44 64.53C103.15 61.81 104.66 60.3 104.97 60C104.97 60 104.97 60 104.97 60C106.76 61.79 107.76 62.79 107.96 62.99Z" id="fr6nZeWr1"></path><path d="M125 56L138.77 56.1L132 64L125 56Z" id="c6kDmzve1"></path><path d="M149 64L162.77 63.91L156 56L149 64Z" id="a7KZ0PIq5"></path><path d="M66 53C66 53 66 53 66 53C66 54.2 66 54.87 66 55C66 55 66 55 66 55C58.8 55 54.8 55 54 55C54 55 54 55 54 55C54 53.8 54 53.13 54 53C54 53 54 53 54 53C61.2 53 65.2 53 66 53Z" id="aB8oxRjuR"></path><path d="M56 66C56 66 56 66 56 66C54.8 66 54.13 66 54 66C54 66 54 66 54 66C54 58.2 54 53.87 54 53C54 53 54 53 54 53C55.2 53 55.87 53 56 53C56 53 56 53 56 53C56 60.8 56 65.13 56 66Z" id="b1qTHJ14W"></path><path d="M66 66C66 66 66 66 66 66C64.8 66 64.13 66 64 66C64 66 64 66 64 66C64 58.2 64 53.87 64 53C64 53 64 53 64 53C65.2 53 65.87 53 66 53C66 53 66 53 66 53C66 60.8 66 65.13 66 66Z" id="frBZdqwRb"></path><path d="M66 57C66 57 66 57 66 57C66 57.6 66 57.93 66 58C66 58 66 58 66 58C58.8 58 54.8 58 54 58C54 58 54 58 54 58C54 57.4 54 57.07 54 57C54 57 54 57 54 57C61.2 57 65.2 57 66 57Z" id="b4v1IN7PC"></path><path d="M66 88C66 88 66 88 66 88C66 89.2 66 89.87 66 90C66 90 66 90 66 90C58.8 90 54.8 90 54 90C54 90 54 90 54 90C54 88.8 54 88.13 54 88C54 88 54 88 54 88C61.2 88 65.2 88 66 88Z" id="a4QN5A752K"></path><path d="M83 76C83 76 83 76 83 76C83 77.8 83 78.8 83 79C83 79 83 79 83 79C81.2 79 80.2 79 80 79C80 79 80 79 80 79C80 77.2 80 76.2 80 76C80 76 80 76 80 76C81.8 76 82.8 76 83 76Z" id="d3Tn0SxcJl"></path><path d="M88 76C88 76 88 76 88 76C88 77.8 88 78.8 88 79C88 79 88 79 88 79C86.2 79 85.2 79 85 79C85 79 85 79 85 79C85 77.2 85 76.2 85 76C85 76 85 76 85 76C86.8 76 87.8 76 88 76Z" id="a1Ld42gVZX"></path><path d="M83 82C83 82 83 82 83 82C83 83.8 83 84.8 83 85C83 85 83 85 83 85C81.2 85 80.2 85 80 85C80 85 80 85 80 85C80 83.2 80 82.2 80 82C80 82 80 82 80 82C81.8 82 82.8 82 83 82Z" id="a4rdKPsMf3"></path><path d="M88 82C88 82 88 82 88 82C88 83.8 88 84.8 88 85C88 85 88 85 88 85C86.2 85 85.2 85 85 85C85 85 85 85 85 85C85 83.2 85 82.2 85 82C85 82 85 82 85 82C86.8 82 87.8 82 88 82Z" id="au7wPaexI"></path><path d="M83 88C83 88 83 88 83 88C83 89.8 83 90.8 83 91C83 91 83 91 83 91C81.2 91 80.2 91 80 91C80 91 80 91 80 91C80 89.2 80 88.2 80 88C80 88 80 88 80 88C81.8 88 82.8 88 83 88Z" id="cg0ZYjJi"></path><path d="M88 88C88 88 88 88 88 88C88 89.8 88 90.8 88 91C88 91 88 91 88 91C86.2 91 85.2 91 85 91C85 91 85 91 85 91C85 89.2 85 88.2 85 88C85 88 85 88 85 88C86.8 88 87.8 88 88 88Z" id="a1zoZMufc"></path><path d="M110.06 77.2C107.44 77.2 105.32 79.32 105.32 81.94C105.32 84.56 107.44 86.68 110.06 86.68C112.68 86.68 114.8 84.56 114.8 81.94C114.8 79.32 112.68 77.2 110.06 77.2Z" id="dMSGyEmyK"></path><path d="M107.96 86.99C107.96 86.99 107.96 86.99 107.96 86.99C105.24 89.71 103.73 91.22 103.43 91.52C103.43 91.52 103.43 91.52 103.43 91.52C101.63 89.72 100.64 88.73 100.44 88.53C100.44 88.53 100.44 88.53 100.44 88.53C103.15 85.81 104.66 84.3 104.97 84C104.97 84 104.97 84 104.97 84C106.76 85.79 107.76 86.79 107.96 86.99Z" id="c5oKoLSi16"></path><path d="M125 80L138.77 80.09L132 88L125 80Z" id="bcRNAP7lz"></path><path d="M149 88L162.77 87.91L156 80L149 88Z" id="b6cMla8w6v"></path><path d="M66 77C66 77 66 77 66 77C66 78.2 66 78.87 66 79C66 79 66 79 66 79C58.8 79 54.8 79 54 79C54 79 54 79 54 79C54 77.8 54 77.13 54 77C54 77 54 77 54 77C61.2 77 65.2 77 66 77Z" id="dJzkmeMiq"></path><path d="M56 90C56 90 56 90 56 90C54.8 90 54.13 90 54 90C54 90 54 90 54 90C54 82.2 54 77.87 54 77C54 77 54 77 54 77C55.2 77 55.87 77 56 77C56 77 56 77 56 77C56 84.8 56 89.13 56 90Z" id="a3ex8TT7L7"></path><path d="M66 90C66 90 66 90 66 90C64.8 90 64.13 90 64 90C64 90 64 90 64 90C64 82.2 64 77.87 64 77C64 77 64 77 64 77C65.2 77 65.87 77 66 77C66 77 66 77 66 77C66 84.8 66 89.13 66 90Z" id="d5ym80S6Lh"></path><path d="M66 81C66 81 66 81 66 81C66 81.6 66 81.93 66 82C66 82 66 82 66 82C58.8 82 54.8 82 54 82C54 82 54 82 54 82C54 81.4 54 81.07 54 81C54 81 54 81 54 81C61.2 81 65.2 81 66 81Z" id="c1bCkdJMTw"></path><path d="M92 101C92 101 92 101 92 101C92 102.2 92 102.87 92 103C92 103 92 103 92 103C82.4 103 77.07 103 76 103C76 103 76 103 76 103C76 101.8 76 101.13 76 101C76 101 76 101 76 101C85.6 101 90.93 101 92 101Z" id="a3B212Tgd"></path><path d="M92 105C92 105 92 105 92 105C92 106.2 92 106.87 92 107C92 107 92 107 92 107C82.4 107 77.07 107 76 107C76 107 76 107 76 107C76 105.8 76 105.13 76 105C76 105 76 105 76 105C85.6 105 90.93 105 92 105Z" id="a24kxnDIfw"></path><path d="M85 109C85 109 85 109 85 109C85 110.2 85 110.87 85 111C85 111 85 111 85 111C79.6 111 76.6 111 76 111C76 111 76 111 76 111C76 109.8 76 109.13 76 109C76 109 76 109 76 109C81.4 109 84.4 109 85 109Z" id="d2PWo0NcZG"></path><path d="M88 125C88 125 88 125 88 125C88 126.2 88 126.87 88 127C88 127 88 127 88 127C80.8 127 76.8 127 76 127C76 127 76 127 76 127C76 125.8 76 125.13 76 125C76 125 76 125 76 125C83.2 125 87.2 125 88 125Z" id="a4UD70E5OZ"></path><path d="M86 137C86 137 86 137 86 137C86 138.2 86 138.87 86 139C86 139 86 139 86 139C80 139 76.67 139 76 139C76 139 76 139 76 139C76 137.8 76 137.13 76 137C76 137 76 137 76 137C82 137 85.33 137 86 137Z" id="c5YzYSVM6"></path><path d="M92 129C92 129 92 129 92 129C92 130.2 92 130.87 92 131C92 131 92 131 92 131C86 131 82.67 131 82 131C82 131 82 131 82 131C82 129.8 82 129.13 82 129C82 129 82 129 82 129C88 129 91.33 129 92 129Z" id="d1ArAXzAaj"></path><path d="M91 133C91 133 91 133 91 133C91 134.2 91 134.87 91 135C91 135 91 135 91 135C85.6 135 82.6 135 82 135C82 135 82 135 82 135C82 133.8 82 133.13 82 133C82 133 82 133 82 133C87.4 133 90.4 133 91 133Z" id="b2VTTU16TQ"></path><path d="M35.13 100.09C33.48 100.31 31.89 101.06 30.63 102.31C30.52 102.2 29.97 101.63 29 100.6L26.68 108.31L34.5 106.41C33.42 105.26 32.82 104.63 32.7 104.5C34.29 102.97 36.75 102.65 38.68 103.78C40.65 104.92 41.56 107.18 40.99 109.33C40.42 111.48 38.46 113.02 36.16 113.02C36.16 113.33 36.16 115.79 36.16 116.1C39.71 116.1 42.87 113.69 43.81 110.16C44.75 106.63 43.19 102.88 40.1 101.09C38.94 100.41 37.67 100.06 36.4 100.02C35.98 100.01 35.55 100.04 35.13 100.09Z" id="d8UAaxWg5T"></path><path d="M56.02 101.03C52.93 102.82 51.37 106.57 52.31 110.1C53.25 113.63 56.41 116.04 59.96 116.04C59.96 115.73 59.96 113.27 59.96 112.96C57.66 112.96 55.7 111.42 55.13 109.27C54.56 107.11 55.47 104.86 57.44 103.72C59.37 102.59 61.83 102.91 63.42 104.44C63.3 104.56 62.7 105.2 61.62 106.34L69.45 108.25L67.12 100.54C66.14 101.57 65.6 102.14 65.49 102.25C64.23 101 62.65 100.25 60.99 100.03C60.57 99.97 60.15 99.95 59.72 99.96C58.45 100 57.18 100.35 56.02 101.03Z" id="a2JG8ERfo"></path><path d="M10.5 102L8 102L12 107L16 102L13.5 102L13.5 100L10.5 100L10.5 102Z" id="h6TaFfcGP"></path><path d="M4.99 108.02L19.01 107.99" id="c2RS1qxvJt"></path><path d="M4.98 132.01L19.01 131.98" id="bF1krq7Gf"></path><path d="M35.13 124.02C33.48 124.24 31.89 125 30.63 126.25C30.52 126.14 29.97 125.57 29 124.54L26.68 132.25L34.5 130.34C33.42 129.2 32.82 128.56 32.7 128.44C34.29 126.91 36.75 126.59 38.68 127.72C40.65 128.86 41.56 131.11 40.99 133.27C40.42 135.42 38.46 136.96 36.16 136.96C36.16 137.27 36.16 139.73 36.16 140.04C39.71 140.04 42.87 137.63 43.81 134.1C44.75 130.57 43.19 126.82 40.1 125.02C38.94 124.35 37.67 124 36.4 123.96C35.98 123.95 35.55 123.97 35.13 124.02Z" id="aC15QKRmr"></path><path d="M56.02 125.03C52.93 126.82 51.37 130.57 52.31 134.1C53.25 137.63 56.41 140.04 59.96 140.04C59.96 139.73 59.96 137.27 59.96 136.96C57.66 136.96 55.7 135.42 55.13 133.27C54.56 131.11 55.47 128.86 57.44 127.72C59.37 126.59 61.83 126.91 63.42 128.44C63.3 128.56 62.7 129.2 61.62 130.34L69.45 132.25L67.12 124.54C66.14 125.57 65.6 126.14 65.49 126.25C64.23 125 62.65 124.25 60.99 124.03C60.57 123.97 60.15 123.95 59.72 123.96C58.45 124 57.18 124.35 56.02 125.03Z" id="g2a7rZd0o3"></path><path d="M10.5 114L8 114L12 109L16 114L13.5 114L13.5 116L10.5 116L10.5 114Z" id="cB7BSbF0p"></path><path d="M10.5 127L8 127L12 122L16 127L13.5 127L13.5 129L10.5 129L10.5 127Z" id="aNESIZ0X7"></path><path d="M10.5 137L8 137L12 142L16 137L13.5 137L13.5 135L10.5 135L10.5 137Z" id="aX62B0P3V"></path><path d="M16.67 60.07L12.83 62.29L9 64.5L9 60.07L9 55.65L12.83 57.86L16.67 60.07Z" id="dPCShlyCu"></path><path d="M31.5 60.07L35.33 62.29L39.17 64.5L39.17 60.07L39.17 55.65L35.33 57.86L31.5 60.07Z" id="a5kSzZjMx6"></path><path d="M11.93 88.46L9.72 84.62L7.51 80.79L11.93 80.79L16.36 80.79L14.15 84.62L11.93 88.46Z" id="k1jFFhnhbx"></path><path d="M35.93 79.33L33.71 83.17L31.5 87L35.93 87L40.35 87L38.14 83.17L35.93 79.33Z" id="b19y54lIsR"></path><path d="M171.83 65.17L188.17 65.17L180 51.83L171.83 65.17Z" id="c5NCxGCWPt"></path><path d="M179 55L179 61L181 61L181 55" id="c6UUnMLGjX"></path><path d="M179 62L179 64L181 64L181 62" id="a88YnlnoOW"></path><path d="M99.99 113.02L102 114.98L109 108.03L112 109L114 108L115 106L115 103L112 106L109 103L112 100L109 100L107 101L106 103L106.99 106.02L99.99 113.02Z" id="a1nYpI9fHC"></path><path d="M236 4C236 4 236 4 236 4C236 13.6 236 18.93 236 20C236 20 236 20 236 20C226.4 20 221.07 20 220 20C220 20 220 20 220 20C220 10.4 220 5.07 220 4C220 4 220 4 220 4C229.6 4 234.93 4 236 4Z" id="d2r1NAB8qH"></path><path d="M234 6L234 8L229 13L229 18L227 18L227 13L222 8L222 6" id="b1O2VV3H2u"></path><path d="M132 107C132 107 132 107 132 107C132 105.8 132 105.13 132 105C132 105 132 105 132 105C127.2 105 124.53 105 124 105C124 105 124 105 124 105C124 106.2 124 106.87 124 107C124 107 124 107 124 107C128.8 107 131.47 107 132 107Z" id="a7ANpgqyMu"></path><path d="M134 103C134 103 134 103 134 103C134 101.8 134 101.13 134 101C134 101 134 101 134 101C128 101 124.67 101 124 101C124 101 124 101 124 101C124 102.2 124 102.87 124 103C124 103 124 103 124 103C130 103 133.33 103 134 103Z" id="d5miOXOey"></path><path d="M128 115C128 115 128 115 128 115C128 113.8 128 113.13 128 113C128 113 128 113 128 113C125.6 113 124.27 113 124 113C124 113 124 113 124 113C124 114.2 124 114.87 124 115C124 115 124 115 124 115C126.4 115 127.73 115 128 115Z" id="a5NnWS8tDt"></path><path d="M130 111C130 111 130 111 130 111C130 109.8 130 109.13 130 109C130 109 130 109 130 109C126.4 109 124.4 109 124 109C124 109 124 109 124 109C124 110.2 124 110.87 124 111C124 111 124 111 124 111C127.6 111 129.6 111 130 111Z" id="d7dvFH2rnB"></path><path d="M136 101L136 110L133 110L137 115L141 110L138 110L138 101L136 101" id="cfLd4NsW"></path><path d="M164 100L164 103L158 109L158 116L154 116L154 109L148 103L148 100" id="eaiYEUY4h"></path><path d="M20 28C20 28 20 28 20 28C20 37.6 20 42.93 20 44C20 44 20 44 20 44C10.4 44 5.07 44 4 44C4 44 4 44 4 44C4 34.4 4 29.07 4 28C4 28 4 28 4 28C13.6 28 18.93 28 20 28Z" id="a3lboBqech"></path><path d="M15 41L15 34L11 34L11 37L6 33L11 29L11 32L17 32L17 41" id="cPQvWjKJI"></path></defs><g><g><g><use xlink:href="#e2MkjFM9m6" opacity="1" fill="#4c4c4c" fill-opacity="1"></use><g><use xlink:href="#e2MkjFM9m6" opacity="1" fill-opacity="0" stroke="#000000" stroke-width="0" stroke-opacity="0"></use></g></g><g><use xlink:href="#az2RH68K" opacity="1" fill="#ec3f29" fill-opacity="0.94"></use><g><use xlink:href="#az2RH68K" opacity="1" fill-opacity="0" stroke="#000000" stroke-width="0" stroke-opacity="0"></use></g></g><g><use xlink:href="#bmeha5K2h" opacity="1" fill="#4c4c4c" fill-opacity="1"></use><g><use xlink:href="#bmeha5K2h" opacity="1" fill-opacity="0" stroke="#000000" stroke-width="0" stroke-opacity="0"></use></g></g><g><use xlink:href="#a10zgPeR4Y" opacity="1" fill="#4c4c4c" fill-opacity="1"></use><g><use xlink:href="#a10zgPeR4Y" opacity="1" fill-opacity="0" stroke="#000000" stroke-width="0" stroke-opacity="0"></use></g></g><g><use xlink:href="#bqinEDCQA" opacity="1" fill="#4c4c4c" fill-opacity="1"></use><g><use xlink:href="#bqinEDCQA" opacity="1" fill-opacity="0" stroke="#000000" stroke-width="0" stroke-opacity="0"></use></g></g><g><use xlink:href="#a55kVFGsmF" opacity="1" fill="#ffffff" fill-opacity="1"></use><g><use xlink:href="#a55kVFGsmF" opacity="1" fill-opacity="0" stroke="#000000" stroke-width="0" stroke-opacity="0"></use></g></g><g><use xlink:href="#kEW38jmRh" opacity="1" fill="#ffffff" fill-opacity="1"></use><g><use xlink:href="#kEW38jmRh" opacity="1" fill-opacity="0" stroke="#000000" stroke-width="0" stroke-opacity="0"></use></g></g><g><use xlink:href="#a4AZJSg21L" opacity="1" fill="#ffffff" fill-opacity="1"></use><g><use xlink:href="#a4AZJSg21L" opacity="1" fill-opacity="0" stroke="#000000" stroke-width="0" stroke-opacity="0"></use></g></g><g><use xlink:href="#c5x3rABGd" opacity="1" fill="#ffffff" fill-opacity="1"></use><g><use xlink:href="#c5x3rABGd" opacity="1" fill-opacity="0" stroke="#000000" stroke-width="0" stroke-opacity="0"></use></g></g><g><use xlink:href="#a7LcX0AEI" opacity="1" fill="#ffffff" fill-opacity="1"></use><g><use xlink:href="#a7LcX0AEI" opacity="1" fill-opacity="0" stroke="#000000" stroke-width="0" stroke-opacity="1"></use></g></g><g><use xlink:href="#blwPqIytz" opacity="1" fill="#ffffff" fill-opacity="1"></use><g><use xlink:href="#blwPqIytz" opacity="1" fill-opacity="0" stroke="#4c4c4c" stroke-width="2" stroke-opacity="1"></use></g></g><g><use xlink:href="#b1Bfl2u6z" opacity="1" fill="#ffffff" fill-opacity="1"></use><g><use xlink:href="#b1Bfl2u6z" opacity="1" fill-opacity="0" stroke="#3c80df" stroke-width="0" stroke-opacity="0.94"></use></g></g><g><use xlink:href="#a2YKZc8oc" opacity="1" fill="#ffffff" fill-opacity="1"></use><g><use xlink:href="#a2YKZc8oc" opacity="1" fill-opacity="0" stroke="#000000" stroke-width="0" stroke-opacity="1"></use></g></g><g><use xlink:href="#c5TXgBflQV" opacity="1" fill="#ffffff" fill-opacity="1"></use><g><use xlink:href="#c5TXgBflQV" opacity="1" fill-opacity="0" stroke="#000000" stroke-width="0" stroke-opacity="1"></use></g></g><g><use xlink:href="#a1Dzpy1z67" opacity="1" fill="#ffffff" fill-opacity="1"></use><g><use xlink:href="#a1Dzpy1z67" opacity="1" fill-opacity="0" stroke="#000000" stroke-width="0" stroke-opacity="1"></use></g></g><g><use xlink:href="#c56kK5L0h2" opacity="1" fill="#ffffff" fill-opacity="1"></use><g><use xlink:href="#c56kK5L0h2" opacity="1" fill-opacity="0" stroke="#000000" stroke-width="0" stroke-opacity="1"></use></g></g><g><use xlink:href="#b32sUS6DzQ" opacity="1" fill="#ffffff" fill-opacity="1"></use><g><use xlink:href="#b32sUS6DzQ" opacity="1" fill-opacity="0" stroke="#000000" stroke-width="0" stroke-opacity="1"></use></g></g><g><use xlink:href="#d19RzERBJZ" opacity="1" fill="#ffffff" fill-opacity="1"></use><g><use xlink:href="#d19RzERBJZ" opacity="1" fill-opacity="0" stroke="#000000" stroke-width="0" stroke-opacity="1"></use></g></g><g><use xlink:href="#i367E2jFkz" opacity="1" fill="#4c4c4c" fill-opacity="1"></use><g><use xlink:href="#i367E2jFkz" opacity="1" fill-opacity="0" stroke="#000000" stroke-width="1" stroke-opacity="0"></use></g></g><g><use xlink:href="#b4JJGc0i0" opacity="1" fill="#ffffff" fill-opacity="1"></use><g><use xlink:href="#b4JJGc0i0" opacity="1" fill-opacity="0" stroke="#ffffff" stroke-width="0.2" stroke-opacity="1"></use></g></g><g><use xlink:href="#fX3XrTMcy" opacity="1" fill="#ffffff" fill-opacity="1"></use><g><use xlink:href="#fX3XrTMcy" opacity="1" fill-opacity="0" stroke="#ffffff" stroke-width="0.2" stroke-opacity="1"></use></g></g><g><use xlink:href="#cYU3cG2EL" opacity="1" fill="#4c4c4c" fill-opacity="1"></use><g><use xlink:href="#cYU3cG2EL" opacity="1" fill-opacity="0" stroke="#000000" stroke-width="1" stroke-opacity="0"></use></g></g><g><use xlink:href="#dP4QpoY4l" opacity="1" fill="#ffffff" fill-opacity="1"></use><g><use xlink:href="#dP4QpoY4l" opacity="1" fill-opacity="0" stroke="#000000" stroke-width="1" stroke-opacity="0"></use></g></g><g><use xlink:href="#i1nnOYKjmp" opacity="1" fill="#ffffff" fill-opacity="1"></use><g><use xlink:href="#i1nnOYKjmp" opacity="1" fill-opacity="0" stroke="#000000" stroke-width="1" stroke-opacity="0"></use></g></g><g><use xlink:href="#aCqThVZz7" opacity="1" fill="#4c4c4c" fill-opacity="1"></use><g><use xlink:href="#aCqThVZz7" opacity="1" fill-opacity="0" stroke="#000000" stroke-width="1" stroke-opacity="0"></use></g></g><g><use xlink:href="#b1SEVthTx8" opacity="1" fill="#ffffff" fill-opacity="1"></use><g><use xlink:href="#b1SEVthTx8" opacity="1" fill-opacity="0" stroke="#000000" stroke-width="1" stroke-opacity="0"></use></g></g><g><use xlink:href="#fpm6iP67c" opacity="1" fill="#4c4c4c" fill-opacity="1"></use><g><use xlink:href="#fpm6iP67c" opacity="1" fill-opacity="0" stroke="#000000" stroke-width="1" stroke-opacity="0"></use></g></g><g><use xlink:href="#bilIKGaHT" opacity="1" fill="#4c4c4c" fill-opacity="1"></use><g><use xlink:href="#bilIKGaHT" opacity="1" fill-opacity="0" stroke="#000000" stroke-width="1" stroke-opacity="0"></use></g></g><g><use xlink:href="#g2wo9JbBb" opacity="1" fill="#ffffff" fill-opacity="1"></use><g><use xlink:href="#g2wo9JbBb" opacity="1" fill-opacity="0" stroke="#000000" stroke-width="1" stroke-opacity="0"></use></g></g><g><use xlink:href="#a1SdRGGZW" opacity="1" fill="#ffffff" fill-opacity="1"></use><g><use xlink:href="#a1SdRGGZW" opacity="1" fill-opacity="0" stroke="#000000" stroke-width="1" stroke-opacity="0"></use></g></g><g><use xlink:href="#e1WZeucv7R" opacity="1" fill="#4c4c4c" fill-opacity="0.98"></use><g><use xlink:href="#e1WZeucv7R" opacity="1" fill-opacity="0" stroke="#000000" stroke-width="0" stroke-opacity="0"></use></g></g><g><use xlink:href="#c1oW9KXatX" opacity="1" fill="#4c4c4c" fill-opacity="0.98"></use><g><use xlink:href="#c1oW9KXatX" opacity="1" fill-opacity="0" stroke="#000000" stroke-width="0" stroke-opacity="0"></use></g></g><g><use xlink:href="#i1FcgAB60H" opacity="1" fill="#4c4c4c" fill-opacity="0.98"></use><g><use xlink:href="#i1FcgAB60H" opacity="1" fill-opacity="0" stroke="#000000" stroke-width="0" stroke-opacity="0"></use></g></g><g><use xlink:href="#blBWVRS0t" opacity="1" fill="#4c4c4c" fill-opacity="0.98"></use><g><use xlink:href="#blBWVRS0t" opacity="1" fill-opacity="0" stroke="#000000" stroke-width="0" stroke-opacity="0"></use></g></g><g><use xlink:href="#g1Uoj2DZsT" opacity="1" fill="#4c4c4c" fill-opacity="0.98"></use><g><use xlink:href="#g1Uoj2DZsT" opacity="1" fill-opacity="0" stroke="#000000" stroke-width="0" stroke-opacity="0"></use></g></g><g><use xlink:href="#cPeStzNui" opacity="1" fill="#4c4c4c" fill-opacity="0.98"></use><g><use xlink:href="#cPeStzNui" opacity="1" fill-opacity="0" stroke="#000000" stroke-width="0" stroke-opacity="0"></use></g></g><g><use xlink:href="#a463Rs1fQ" opacity="1" fill="#4c4c4c" fill-opacity="0.98"></use><g><use xlink:href="#a463Rs1fQ" opacity="1" fill-opacity="0" stroke="#000000" stroke-width="0" stroke-opacity="0"></use></g></g><g><use xlink:href="#a3iFsQ5BNf" opacity="1" fill="#000000" fill-opacity="0"></use><g><use xlink:href="#a3iFsQ5BNf" opacity="1" fill-opacity="0" stroke="#4c4c4c" stroke-width="2" stroke-opacity="1"></use></g></g><g><use xlink:href="#fr6nZeWr1" opacity="1" fill="#4c4c4c" fill-opacity="0.98"></use><g><use xlink:href="#fr6nZeWr1" opacity="1" fill-opacity="0" stroke="#000000" stroke-width="0" stroke-opacity="0"></use></g></g><g><use xlink:href="#c6kDmzve1" opacity="1" fill="#4c4c4c" fill-opacity="1"></use><g><use xlink:href="#c6kDmzve1" opacity="1" fill-opacity="0" stroke="#000000" stroke-width="0" stroke-opacity="0"></use></g></g><g><use xlink:href="#a7KZ0PIq5" opacity="1" fill="#4c4c4c" fill-opacity="1"></use><g><use xlink:href="#a7KZ0PIq5" opacity="1" fill-opacity="0" stroke="#000000" stroke-width="0" stroke-opacity="0"></use></g></g><g><use xlink:href="#aB8oxRjuR" opacity="1" fill="#4c4c4c" fill-opacity="0.98"></use><g><use xlink:href="#aB8oxRjuR" opacity="1" fill-opacity="0" stroke="#000000" stroke-width="0" stroke-opacity="0"></use></g></g><g><use xlink:href="#b1qTHJ14W" opacity="1" fill="#4c4c4c" fill-opacity="0.98"></use><g><use xlink:href="#b1qTHJ14W" opacity="1" fill-opacity="0" stroke="#000000" stroke-width="0" stroke-opacity="0"></use></g></g><g><use xlink:href="#frBZdqwRb" opacity="1" fill="#4c4c4c" fill-opacity="0.98"></use><g><use xlink:href="#frBZdqwRb" opacity="1" fill-opacity="0" stroke="#000000" stroke-width="0" stroke-opacity="0"></use></g></g><g><use xlink:href="#b4v1IN7PC" opacity="1" fill="#4c4c4c" fill-opacity="0.98"></use><g><use xlink:href="#b4v1IN7PC" opacity="1" fill-opacity="0" stroke="#000000" stroke-width="0" stroke-opacity="0"></use></g></g><g><use xlink:href="#a4QN5A752K" opacity="1" fill="#d3d3d3" fill-opacity="1"></use><g><use xlink:href="#a4QN5A752K" opacity="1" fill-opacity="0" stroke="#000000" stroke-width="0" stroke-opacity="0"></use></g></g><g><use xlink:href="#d3Tn0SxcJl" opacity="1" fill="#d3d3d3" fill-opacity="1"></use><g><use xlink:href="#d3Tn0SxcJl" opacity="1" fill-opacity="0" stroke="#000000" stroke-width="0" stroke-opacity="0"></use></g></g><g><use xlink:href="#a1Ld42gVZX" opacity="1" fill="#d3d3d3" fill-opacity="1"></use><g><use xlink:href="#a1Ld42gVZX" opacity="1" fill-opacity="0" stroke="#000000" stroke-width="0" stroke-opacity="0"></use></g></g><g><use xlink:href="#a4rdKPsMf3" opacity="1" fill="#d3d3d3" fill-opacity="1"></use><g><use xlink:href="#a4rdKPsMf3" opacity="1" fill-opacity="0" stroke="#000000" stroke-width="0" stroke-opacity="0"></use></g></g><g><use xlink:href="#au7wPaexI" opacity="1" fill="#d3d3d3" fill-opacity="1"></use><g><use xlink:href="#au7wPaexI" opacity="1" fill-opacity="0" stroke="#000000" stroke-width="0" stroke-opacity="0"></use></g></g><g><use xlink:href="#cg0ZYjJi" opacity="1" fill="#d3d3d3" fill-opacity="1"></use><g><use xlink:href="#cg0ZYjJi" opacity="1" fill-opacity="0" stroke="#000000" stroke-width="0" stroke-opacity="0"></use></g></g><g><use xlink:href="#a1zoZMufc" opacity="1" fill="#d3d3d3" fill-opacity="1"></use><g><use xlink:href="#a1zoZMufc" opacity="1" fill-opacity="0" stroke="#000000" stroke-width="0" stroke-opacity="0"></use></g></g><g><use xlink:href="#dMSGyEmyK" opacity="1" fill="#000000" fill-opacity="0"></use><g><use xlink:href="#dMSGyEmyK" opacity="1" fill-opacity="0" stroke="#d3d3d3" stroke-width="2" stroke-opacity="1"></use></g></g><g><use xlink:href="#c5oKoLSi16" opacity="1" fill="#d3d3d3" fill-opacity="1"></use><g><use xlink:href="#c5oKoLSi16" opacity="1" fill-opacity="0" stroke="#d3d3d3" stroke-width="0" stroke-opacity="1"></use></g></g><g><use xlink:href="#bcRNAP7lz" opacity="1" fill="#d3d3d3" fill-opacity="1"></use><g><use xlink:href="#bcRNAP7lz" opacity="1" fill-opacity="0" stroke="#d3d3d3" stroke-width="0" stroke-opacity="1"></use></g></g><g><use xlink:href="#b6cMla8w6v" opacity="1" fill="#d3d3d3" fill-opacity="1"></use><g><use xlink:href="#b6cMla8w6v" opacity="1" fill-opacity="0" stroke="#d3d3d3" stroke-width="0" stroke-opacity="1"></use></g></g><g><use xlink:href="#dJzkmeMiq" opacity="1" fill="#d3d3d3" fill-opacity="1"></use><g><use xlink:href="#dJzkmeMiq" opacity="1" fill-opacity="0" stroke="#000000" stroke-width="0" stroke-opacity="0"></use></g></g><g><use xlink:href="#a3ex8TT7L7" opacity="1" fill="#d3d3d3" fill-opacity="1"></use><g><use xlink:href="#a3ex8TT7L7" opacity="1" fill-opacity="0" stroke="#000000" stroke-width="0" stroke-opacity="0"></use></g></g><g><use xlink:href="#d5ym80S6Lh" opacity="1" fill="#d3d3d3" fill-opacity="1"></use><g><use xlink:href="#d5ym80S6Lh" opacity="1" fill-opacity="0" stroke="#000000" stroke-width="0" stroke-opacity="0"></use></g></g><g><use xlink:href="#c1bCkdJMTw" opacity="1" fill="#d3d3d3" fill-opacity="1"></use><g><use xlink:href="#c1bCkdJMTw" opacity="1" fill-opacity="0" stroke="#000000" stroke-width="0" stroke-opacity="0"></use></g></g><g><use xlink:href="#a3B212Tgd" opacity="1" fill="#ffffff" fill-opacity="0.8"></use><g><use xlink:href="#a3B212Tgd" opacity="1" fill-opacity="0" stroke="#000000" stroke-width="0" stroke-opacity="0"></use></g></g><g><use xlink:href="#a24kxnDIfw" opacity="1" fill="#ffffff" fill-opacity="0.8"></use><g><use xlink:href="#a24kxnDIfw" opacity="1" fill-opacity="0" stroke="#000000" stroke-width="0" stroke-opacity="0"></use></g></g><g><use xlink:href="#d2PWo0NcZG" opacity="1" fill="#ffffff" fill-opacity="0.8"></use><g><use xlink:href="#d2PWo0NcZG" opacity="1" fill-opacity="0" stroke="#000000" stroke-width="0" stroke-opacity="0"></use></g></g><g><use xlink:href="#a4UD70E5OZ" opacity="1" fill="#12263f" fill-opacity="0.8"></use><g><use xlink:href="#a4UD70E5OZ" opacity="1" fill-opacity="0" stroke="#000000" stroke-width="0" stroke-opacity="0"></use></g></g><g><use xlink:href="#c5YzYSVM6" opacity="1" fill="#12263f" fill-opacity="0.8"></use><g><use xlink:href="#c5YzYSVM6" opacity="1" fill-opacity="0" stroke="#000000" stroke-width="0" stroke-opacity="0"></use></g></g><g><use xlink:href="#d1ArAXzAaj" opacity="1" fill="#12263f" fill-opacity="0.8"></use><g><use xlink:href="#d1ArAXzAaj" opacity="1" fill-opacity="0" stroke="#000000" stroke-width="0" stroke-opacity="0"></use></g></g><g><use xlink:href="#b2VTTU16TQ" opacity="1" fill="#12263f" fill-opacity="0.8"></use><g><use xlink:href="#b2VTTU16TQ" opacity="1" fill-opacity="0" stroke="#000000" stroke-width="0" stroke-opacity="0"></use></g></g><g><use xlink:href="#d8UAaxWg5T" opacity="1" fill="#12263f" fill-opacity="1"></use><g><use xlink:href="#d8UAaxWg5T" opacity="1" fill-opacity="0" stroke="#12263f" stroke-width="2.66" stroke-opacity="0"></use></g></g><g><use xlink:href="#a2JG8ERfo" opacity="1" fill="#12263f" fill-opacity="1"></use><g><use xlink:href="#a2JG8ERfo" opacity="1" fill-opacity="0" stroke="#12263f" stroke-width="2.66" stroke-opacity="0"></use></g></g><g><use xlink:href="#h6TaFfcGP" opacity="1" fill="#ffffff" fill-opacity="1"></use><g><use xlink:href="#h6TaFfcGP" opacity="1" fill-opacity="0" stroke="#000000" stroke-width="1.97" stroke-opacity="0"></use></g></g><g><use xlink:href="#c2RS1qxvJt" opacity="1" fill="#000000" fill-opacity="0"></use><g><use xlink:href="#c2RS1qxvJt" opacity="1" fill-opacity="0" stroke="#ffffff" stroke-width="1.97" stroke-opacity="1"></use></g></g><g><use xlink:href="#bF1krq7Gf" opacity="1" fill="#000000" fill-opacity="0"></use><g><use xlink:href="#bF1krq7Gf" opacity="1" fill-opacity="0" stroke="#ffffff" stroke-width="1.97" stroke-opacity="1"></use></g></g><g><use xlink:href="#aC15QKRmr" opacity="1" fill="#4d4d4d" fill-opacity="1"></use><g><use xlink:href="#aC15QKRmr" opacity="1" fill-opacity="0" stroke="#000000" stroke-width="2.66" stroke-opacity="0"></use></g></g><g><use xlink:href="#g2a7rZd0o3" opacity="1" fill="#4d4d4d" fill-opacity="1"></use><g><use xlink:href="#g2a7rZd0o3" opacity="1" fill-opacity="0" stroke="#000000" stroke-width="2.66" stroke-opacity="0"></use></g></g><g><use xlink:href="#cB7BSbF0p" opacity="1" fill="#ffffff" fill-opacity="1"></use><g><use xlink:href="#cB7BSbF0p" opacity="1" fill-opacity="0" stroke="#000000" stroke-width="1.97" stroke-opacity="0"></use></g></g><g><use xlink:href="#aNESIZ0X7" opacity="1" fill="#ffffff" fill-opacity="1"></use><g><use xlink:href="#aNESIZ0X7" opacity="1" fill-opacity="0" stroke="#000000" stroke-width="1.97" stroke-opacity="0"></use></g></g><g><use xlink:href="#aX62B0P3V" opacity="1" fill="#ffffff" fill-opacity="1"></use><g><use xlink:href="#aX62B0P3V" opacity="1" fill-opacity="0" stroke="#000000" stroke-width="1.97" stroke-opacity="0"></use></g></g><g><use xlink:href="#dPCShlyCu" opacity="1" fill="#4d4d4d" fill-opacity="0.9"></use><g><use xlink:href="#dPCShlyCu" opacity="1" fill-opacity="0" stroke="#d3d3d3" stroke-width="0" stroke-opacity="1"></use></g></g><g><use xlink:href="#a5kSzZjMx6" opacity="1" fill="#4d4d4d" fill-opacity="0.9"></use><g><use xlink:href="#a5kSzZjMx6" opacity="1" fill-opacity="0" stroke="#d3d3d3" stroke-width="0" stroke-opacity="1"></use></g></g><g><use xlink:href="#k1jFFhnhbx" opacity="1" fill="#4d4d4d" fill-opacity="0.9"></use><g><use xlink:href="#k1jFFhnhbx" opacity="1" fill-opacity="0" stroke="#d3d3d3" stroke-width="0" stroke-opacity="1"></use></g></g><g><use xlink:href="#b19y54lIsR" opacity="1" fill="#4d4d4d" fill-opacity="0.9"></use><g><use xlink:href="#b19y54lIsR" opacity="1" fill-opacity="0" stroke="#d3d3d3" stroke-width="0" stroke-opacity="1"></use></g></g><g><use xlink:href="#c5NCxGCWPt" opacity="1" fill="#fbb917" fill-opacity="1"></use><g><use xlink:href="#c5NCxGCWPt" opacity="1" fill-opacity="0" stroke="#fbb917" stroke-width="1.65" stroke-opacity="1"></use></g></g><g><use xlink:href="#c6UUnMLGjX" opacity="1" fill="#ffffff" fill-opacity="1"></use><g><use xlink:href="#c6UUnMLGjX" opacity="1" fill-opacity="0" stroke="#000000" stroke-width="1" stroke-opacity="0"></use></g></g><g><use xlink:href="#a88YnlnoOW" opacity="1" fill="#ffffff" fill-opacity="1"></use><g><use xlink:href="#a88YnlnoOW" opacity="1" fill-opacity="0" stroke="#000000" stroke-width="1" stroke-opacity="0"></use></g></g><g><use xlink:href="#a1nYpI9fHC" opacity="1" fill="#12263f" fill-opacity="0.8"></use><g><use xlink:href="#a1nYpI9fHC" opacity="1" fill-opacity="0" stroke="#12263f" stroke-width="1" stroke-opacity="0.8"></use></g></g><g><use xlink:href="#d2r1NAB8qH" opacity="1" fill="#4c4c4c" fill-opacity="1"></use><g><use xlink:href="#d2r1NAB8qH" opacity="1" fill-opacity="0" stroke="#000000" stroke-width="0" stroke-opacity="0"></use></g></g><g><use xlink:href="#b1O2VV3H2u" opacity="1" fill="#ffffff" fill-opacity="1"></use><g><use xlink:href="#b1O2VV3H2u" opacity="1" fill-opacity="0" stroke="#000000" stroke-width="1" stroke-opacity="0"></use></g></g><g><use xlink:href="#a7ANpgqyMu" opacity="1" fill="#ffffff" fill-opacity="0.8"></use><g><use xlink:href="#a7ANpgqyMu" opacity="1" fill-opacity="0" stroke="#000000" stroke-width="0" stroke-opacity="1"></use></g></g><g><use xlink:href="#d5miOXOey" opacity="1" fill="#ffffff" fill-opacity="0.8"></use><g><use xlink:href="#d5miOXOey" opacity="1" fill-opacity="0" stroke="#000000" stroke-width="0" stroke-opacity="1"></use></g></g><g><use xlink:href="#a5NnWS8tDt" opacity="1" fill="#ffffff" fill-opacity="0.8"></use><g><use xlink:href="#a5NnWS8tDt" opacity="1" fill-opacity="0" stroke="#000000" stroke-width="0" stroke-opacity="1"></use></g></g><g><use xlink:href="#d7dvFH2rnB" opacity="1" fill="#ffffff" fill-opacity="0.8"></use><g><use xlink:href="#d7dvFH2rnB" opacity="1" fill-opacity="0" stroke="#000000" stroke-width="0" stroke-opacity="1"></use></g></g><g><use xlink:href="#cfLd4NsW" opacity="1" fill="#ffffff" fill-opacity="0.8"></use><g><use xlink:href="#cfLd4NsW" opacity="1" fill-opacity="0" stroke="#000000" stroke-width="0.68" stroke-opacity="0"></use></g></g><g><use xlink:href="#eaiYEUY4h" opacity="1" fill="#ffffff" fill-opacity="0.8"></use><g><use xlink:href="#eaiYEUY4h" opacity="1" fill-opacity="0" stroke="#000000" stroke-width="1" stroke-opacity="0"></use></g></g><g><use xlink:href="#a3lboBqech" opacity="1" fill="#4c4c4c" fill-opacity="1"></use><g><use xlink:href="#a3lboBqech" opacity="1" fill-opacity="0" stroke="#000000" stroke-width="0" stroke-opacity="0"></use></g></g><g><use xlink:href="#cPQvWjKJI" opacity="1" fill="#ffffff" fill-opacity="1"></use><g><use xlink:href="#cPQvWjKJI" opacity="1" fill-opacity="0" stroke="#000000" stroke-width="0.68" stroke-opacity="0"></use></g></g></g></g></svg>